<svg width="3904" height="2314" xmlns="http://www.w3.org/2000/svg" xmlns:xlink="http://www.w3.org/1999/xlink" xml:space="preserve" overflow="hidden"><g transform="translate(59 -128)"><g><rect x="155" y="129" width="3626" height="2309" fill="#FFFFFF" fill-opacity="1"/><path d="M330 2207 1847 129 3364 2207Z" fill="#E6E6E6" fill-rule="evenodd" fill-opacity="1"/><rect x="1707.5" y="132.5" width="330" height="520" stroke="#FFFFFF" stroke-width="4.58333" stroke-linecap="butt" stroke-linejoin="miter" stroke-miterlimit="8" stroke-opacity="1" fill="#FFFFFF" fill-opacity="1"/><rect x="325.5" y="1882.5" width="330" height="519" stroke="#FFFFFF" stroke-width="4.58333" stroke-linecap="butt" stroke-linejoin="miter" stroke-miterlimit="8" stroke-opacity="1" fill="#FFFFFF" fill-opacity="1"/><rect x="3034.5" y="1918.5" width="330" height="520" stroke="#FFFFFF" stroke-width="4.58333" stroke-linecap="butt" stroke-linejoin="miter" stroke-miterlimit="8" stroke-opacity="1" fill="#FFFFFF" fill-opacity="1"/><path d="M1365 488C1365 302.432 1592.22 152 1872.5 152 2152.78 152 2380 302.432 2380 488 2380 673.568 2152.78 824 1872.5 824 1592.22 824 1365 673.568 1365 488Z" fill="#E6E6E6" fill-rule="evenodd" fill-opacity="1"/><path d="M287 2066.5C287 1880.66 514.439 1730 795 1730 1075.56 1730 1303 1880.66 1303 2066.5 1303 2252.34 1075.56 2403 795 2403 514.439 2403 287 2252.34 287 2066.5Z" fill="#E6E6E6" fill-rule="evenodd" fill-opacity="1"/><path d="M2391 2066.5C2391 1880.66 2618.44 1730 2899 1730 3179.56 1730 3407 1880.66 3407 2066.5 3407 2252.34 3179.56 2403 2899 2403 2618.44 2403 2391 2252.34 2391 2066.5Z" fill="#E6E6E6" fill-rule="evenodd" fill-opacity="1"/><text fill="#000000" fill-opacity="1" font-family="Arial,Arial_MSFontService,sans-serif" font-style="normal" font-variant="normal" font-weight="400" font-stretch="normal" font-size="124" text-anchor="start" direction="ltr" writing-mode="lr-tb" unicode-bidi="normal" text-decoration="none" transform="matrix(1 0 0 1 342.103 2036)">Condensed matter </text><text fill="#000000" fill-opacity="1" font-family="Arial,Arial_MSFontService,sans-serif" font-style="normal" font-variant="normal" font-weight="400" font-stretch="normal" font-size="124" text-anchor="start" direction="ltr" writing-mode="lr-tb" unicode-bidi="normal" text-decoration="none" transform="matrix(1 0 0 1 644.603 2185)">physics</text><text fill="#000000" fill-opacity="1" font-family="Arial,Arial_MSFontService,sans-serif" font-style="normal" font-variant="normal" font-weight="400" font-stretch="normal" font-size="124" text-anchor="start" direction="ltr" writing-mode="lr-tb" unicode-bidi="normal" text-decoration="none" transform="matrix(1 0 0 1 2634.34 2026)">Nonlinear </text><text fill="#000000" fill-opacity="1" font-family="Arial,Arial_MSFontService,sans-serif" font-style="normal" font-variant="normal" font-weight="400" font-stretch="normal" font-size="124" text-anchor="start" direction="ltr" writing-mode="lr-tb" unicode-bidi="normal" text-decoration="none" transform="matrix(1 0 0 1 2637.78 2175)">dynamics</text><text fill="#000000" fill-opacity="1" font-family="Arial,Arial_MSFontService,sans-serif" font-style="normal" font-variant="normal" font-weight="400" font-stretch="normal" font-size="124" text-anchor="start" direction="ltr" writing-mode="lr-tb" unicode-bidi="normal" text-decoration="none" transform="matrix(1 0 0 1 1466.17 517)">Quantum optics</text><text fill="#000000" fill-opacity="1" font-family="Arial,Arial_MSFontService,sans-serif" font-style="normal" font-variant="normal" font-weight="400" font-stretch="normal" font-size="124" text-anchor="start" direction="ltr" writing-mode="lr-tb" unicode-bidi="normal" text-decoration="none" transform="matrix(1 0 0 1 1141.3 1223)">Collective modes in large</text><text fill="#000000" fill-opacity="1" font-family="Arial,Arial_MSFontService,sans-serif" font-style="normal" font-variant="normal" font-weight="400" font-stretch="normal" font-size="124" text-anchor="start" direction="ltr" writing-mode="lr-tb" unicode-bidi="normal" text-decoration="none" transform="matrix(1 0 0 1 2523.17 1223)">-</text><text fill="#000000" fill-opacity="1" font-family="Arial,Arial_MSFontService,sans-serif" font-style="normal" font-variant="normal" font-weight="400" font-stretch="normal" font-size="124" text-anchor="start" direction="ltr" writing-mode="lr-tb" unicode-bidi="normal" text-decoration="none" transform="matrix(1 0 0 1 1017.55 1372)">scale reconfigurable photonics</text><text fill="#203864" fill-opacity="1" font-family="Arial,Arial_MSFontService,sans-serif" font-style="normal" font-variant="normal" font-weight="400" font-stretch="normal" font-size="124" text-anchor="start" direction="ltr" writing-mode="lr-tb" unicode-bidi="normal" text-decoration="none" transform="matrix(1 0 0 1 226.147 1598)">Topology, symmetry,</text><text fill="#203864" fill-opacity="1" font-family="Arial,Arial_MSFontService,sans-serif" font-style="normal" font-variant="normal" font-weight="400" font-stretch="normal" font-size="124" text-anchor="start" direction="ltr" writing-mode="lr-tb" unicode-bidi="normal" text-decoration="none" transform="matrix(1 0 0 1 282.293 1747)">quantum transport</text><text fill="#C00000" fill-opacity="1" font-family="Arial,Arial_MSFontService,sans-serif" font-style="normal" font-variant="normal" font-weight="400" font-stretch="normal" font-size="124" text-anchor="start" direction="ltr" writing-mode="lr-tb" unicode-bidi="normal" text-decoration="none" transform="matrix(1 0 0 1 2473.8 1570)">Ultrafast modulation,</text><text fill="#C00000" fill-opacity="1" font-family="Arial,Arial_MSFontService,sans-serif" font-style="normal" font-variant="normal" font-weight="400" font-stretch="normal" font-size="124" text-anchor="start" direction="ltr" writing-mode="lr-tb" unicode-bidi="normal" text-decoration="none" transform="matrix(1 0 0 1 2360.36 1719)">neuromorphic </text><text fill="#C00000" fill-opacity="1" font-family="Arial,Arial_MSFontService,sans-serif" font-style="normal" font-variant="normal" font-weight="400" font-stretch="normal" font-size="124" text-anchor="start" direction="ltr" writing-mode="lr-tb" unicode-bidi="normal" text-decoration="none" transform="matrix(1 0 0 1 3150.99 1719)">computing </text><text fill="#385723" fill-opacity="1" font-family="Arial,Arial_MSFontService,sans-serif" font-style="normal" font-variant="normal" font-weight="400" font-stretch="normal" font-size="124" text-anchor="start" direction="ltr" writing-mode="lr-tb" unicode-bidi="normal" text-decoration="none" transform="matrix(1 0 0 1 1985.34 812)">Quantum sensing, </text><text fill="#385723" fill-opacity="1" font-family="Arial,Arial_MSFontService,sans-serif" font-style="normal" font-variant="normal" font-weight="400" font-stretch="normal" font-size="124" text-anchor="start" direction="ltr" writing-mode="lr-tb" unicode-bidi="normal" text-decoration="none" transform="matrix(1 0 0 1 2215.66 961)">memories</text><path d="M1821.5 660 1878 603.5 1934.5 660 1906.25 660 1906.25 1031 1934.5 1031 1878 1087.5 1821.5 1031 1849.75 1031 1849.75 660Z" stroke="#2F528F" stroke-width="4.58333" stroke-linecap="butt" stroke-linejoin="miter" stroke-miterlimit="8" stroke-opacity="1" fill="#548235" fill-rule="evenodd" fill-opacity="1"/><path d="M1590.49 1501.78 1693.21 1500.26 1694.73 1602.98 1668.67 1577.68 1395.21 1859.37 1421.27 1884.67 1318.55 1886.19 1317.03 1783.47 1343.09 1808.77 1616.55 1527.08Z" fill="#2F5597" fill-rule="evenodd" fill-opacity="1"/><path d="M0 70.6816 70.6818 0 141.363 70.6816 106.022 70.6816 106.022 470.583 141.363 470.583 70.6818 541.264 0 470.583 35.3409 470.583 35.3409 70.6816Z" fill="#C00000" fill-rule="evenodd" fill-opacity="1" transform="matrix(-0.682105 0.731254 0.731254 0.682105 2071.88 1461.02)"/></g></g></svg>