<svg width="316" height="194" xmlns="http://www.w3.org/2000/svg" xmlns:xlink="http://www.w3.org/1999/xlink" xml:space="preserve" overflow="hidden"><defs><clipPath id="clip0"><rect x="0" y="0" width="316" height="194"/></clipPath><clipPath id="clip1"><rect x="0" y="0" width="316" height="194"/></clipPath></defs><g clip-path="url(#clip0)"><g clip-path="url(#clip1)"><path d="M27.8802 186.333 156.013 10.9198 284.146 186.333Z" fill="#E6E6E6" fill-rule="evenodd" fill-opacity="1" transform="matrix(1.00063 0 0 1 -12.274 -6.97006)"/><path d="M115.006 35.4311C115.006 19.7125 134.198 6.97006 157.872 6.97006 181.546 6.97006 200.738 19.7125 200.738 35.4311 200.738 51.1498 181.546 63.8922 157.872 63.8922 134.198 63.8922 115.006 51.1498 115.006 35.4311Z" fill="#E6E6E6" fill-rule="evenodd" fill-opacity="1" transform="matrix(1.00063 0 0 1 -12.274 -6.97006)"/><path d="M23.0012 172.509C23.0012 156.79 42.1928 144.048 65.8671 144.048 89.5413 144.048 108.733 156.79 108.733 172.509 108.733 188.228 89.5413 200.97 65.8671 200.97 42.1928 200.97 23.0012 188.228 23.0012 172.509Z" fill="#E6E6E6" fill-rule="evenodd" fill-opacity="1" transform="matrix(1.00063 0 0 1 -12.274 -6.97006)"/><path d="M203.293 172.044C203.293 156.326 222.485 143.583 246.159 143.583 269.834 143.583 289.025 156.326 289.025 172.044 289.025 187.763 269.834 200.505 246.159 200.505 222.485 200.505 203.293 187.763 203.293 172.044Z" fill="#E6E6E6" fill-rule="evenodd" fill-opacity="1" transform="matrix(1.00063 0 0 1 -12.274 -6.97006)"/><text fill="#000000" fill-opacity="1" font-family="Arial,Arial_MSFontService,sans-serif" font-style="normal" font-variant="normal" font-weight="400" font-stretch="normal" font-size="45" text-anchor="start" direction="ltr" writing-mode="lr-tb" unicode-bidi="normal" text-decoration="none" transform="matrix(0.232482 0 0 0.232335 15.0775 163)">Condensed matter </text><text fill="#000000" fill-opacity="1" font-family="Arial,Arial_MSFontService,sans-serif" font-style="normal" font-variant="normal" font-weight="400" font-stretch="normal" font-size="45" text-anchor="start" direction="ltr" writing-mode="lr-tb" unicode-bidi="normal" text-decoration="none" transform="matrix(0.232482 0 0 0.232335 40.6506 176)">physics</text><text fill="#000000" fill-opacity="1" font-family="Arial,Arial_MSFontService,sans-serif" font-style="normal" font-variant="normal" font-weight="400" font-stretch="normal" font-size="45" text-anchor="start" direction="ltr" writing-mode="lr-tb" unicode-bidi="normal" text-decoration="none" transform="matrix(0.232482 0 0 0.232335 215.291 163)">Nonlinear </text><text fill="#000000" fill-opacity="1" font-family="Arial,Arial_MSFontService,sans-serif" font-style="normal" font-variant="normal" font-weight="400" font-stretch="normal" font-size="45" text-anchor="start" direction="ltr" writing-mode="lr-tb" unicode-bidi="normal" text-decoration="none" transform="matrix(0.232482 0 0 0.232335 215.581 176)">dynamics</text><text fill="#000000" fill-opacity="1" font-family="Arial,Arial_MSFontService,sans-serif" font-style="normal" font-variant="normal" font-weight="400" font-stretch="normal" font-size="45" text-anchor="start" direction="ltr" writing-mode="lr-tb" unicode-bidi="normal" text-decoration="none" transform="matrix(0.232482 0 0 0.232335 109.45 32)">Quantum optics</text><text fill="#000000" fill-opacity="1" font-family="Arial,Arial_MSFontService,sans-serif" font-style="normal" font-variant="normal" font-weight="400" font-stretch="normal" font-size="45" text-anchor="start" direction="ltr" writing-mode="lr-tb" unicode-bidi="normal" text-decoration="none" transform="matrix(0.232482 0 0 0.232335 84.2103 96)">Collective modes in large</text><text fill="#000000" fill-opacity="1" font-family="Arial,Arial_MSFontService,sans-serif" font-style="normal" font-variant="normal" font-weight="400" font-stretch="normal" font-size="45" text-anchor="start" direction="ltr" writing-mode="lr-tb" unicode-bidi="normal" text-decoration="none" transform="matrix(0.232482 0 0 0.232335 201.033 96)">-</text><text fill="#000000" fill-opacity="1" font-family="Arial,Arial_MSFontService,sans-serif" font-style="normal" font-variant="normal" font-weight="400" font-stretch="normal" font-size="45" text-anchor="start" direction="ltr" writing-mode="lr-tb" unicode-bidi="normal" text-decoration="none" transform="matrix(0.232482 0 0 0.232335 73.7486 109)">scale reconfigurable photonics</text><text fill="#203864" fill-opacity="1" font-family="Arial,Arial_MSFontService,sans-serif" font-style="normal" font-variant="normal" font-weight="400" font-stretch="normal" font-size="45" text-anchor="start" direction="ltr" writing-mode="lr-tb" unicode-bidi="normal" text-decoration="none" transform="matrix(0.232482 0 0 0.232335 1.57497 128)">Topology, symmetry,</text><text fill="#203864" fill-opacity="1" font-family="Arial,Arial_MSFontService,sans-serif" font-style="normal" font-variant="normal" font-weight="400" font-stretch="normal" font-size="45" text-anchor="start" direction="ltr" writing-mode="lr-tb" unicode-bidi="normal" text-decoration="none" transform="matrix(0.232482 0 0 0.232335 6.32149 140)">q</text><text fill="#203864" fill-opacity="1" font-family="Arial,Arial_MSFontService,sans-serif" font-style="normal" font-variant="normal" font-weight="400" font-stretch="normal" font-size="45" text-anchor="start" direction="ltr" writing-mode="lr-tb" unicode-bidi="normal" text-decoration="none" transform="matrix(0.232482 0 0 0.232335 12.1336 140)">uantum transport</text><text fill="#C00000" fill-opacity="1" font-family="Arial,Arial_MSFontService,sans-serif" font-style="normal" font-variant="normal" font-weight="400" font-stretch="normal" font-size="45" text-anchor="start" direction="ltr" writing-mode="lr-tb" unicode-bidi="normal" text-decoration="none" transform="matrix(0.232482 0 0 0.232335 207.422 126)">Ultrafast modulation,</text><text fill="#C00000" fill-opacity="1" font-family="Arial,Arial_MSFontService,sans-serif" font-style="normal" font-variant="normal" font-weight="400" font-stretch="normal" font-size="45" text-anchor="start" direction="ltr" writing-mode="lr-tb" unicode-bidi="normal" text-decoration="none" transform="matrix(0.232482 0 0 0.232335 197.832 139)">neuromorphic computing </text><text fill="#385723" fill-opacity="1" font-family="Arial,Arial_MSFontService,sans-serif" font-style="normal" font-variant="normal" font-weight="400" font-stretch="normal" font-size="45" text-anchor="start" direction="ltr" writing-mode="lr-tb" unicode-bidi="normal" text-decoration="none" transform="matrix(0.232482 0 0 0.232335 164.054 63)">Quantum sensing, </text><text fill="#385723" fill-opacity="1" font-family="Arial,Arial_MSFontService,sans-serif" font-style="normal" font-variant="normal" font-weight="400" font-stretch="normal" font-size="45" text-anchor="start" direction="ltr" writing-mode="lr-tb" unicode-bidi="normal" text-decoration="none" transform="matrix(0.232482 0 0 0.232335 183.525 76)">memories</text><path d="M153.806 55.6443 158.569 50.8814 163.332 55.6443 160.95 55.6443 160.95 87.0096 163.332 87.0096 158.569 91.7725 153.806 87.0096 156.187 87.0096 156.187 55.6443Z" stroke="#2F528F" stroke-width="0.387226" stroke-linecap="butt" stroke-linejoin="miter" stroke-miterlimit="8" stroke-opacity="1" fill="#548235" fill-rule="evenodd" fill-opacity="1" transform="matrix(1.00063 0 0 1 -12.274 -6.97006)"/><path d="M132.004 125.387 140.871 126.209 140.049 135.076 138.038 132.653 112.546 153.823 114.557 156.245 105.69 155.423 106.512 146.556 108.523 148.979 134.015 127.809Z" fill="#2F5597" fill-rule="evenodd" fill-opacity="1" transform="matrix(1.00063 0 0 1 -12.274 -6.97006)"/><path d="M0 5.97329 5.97331 0 11.9466 5.97329 8.95991 5.97329 8.95991 39.7689 11.9466 39.7689 5.97331 45.7421 0 39.7689 2.98665 39.7689 2.98665 5.97329Z" fill="#C00000" fill-rule="evenodd" fill-opacity="1" transform="matrix(-0.674822 0.737981 0.738448 0.674395 170.177 116.186)"/></g></g></svg>